<!DOCTYPE svg PUBLIC "-//W3C//DTD SVG 1.1//EN" "http://www.w3.org/Graphics/SVG/1.1/DTD/svg11.dtd">

<!-- Uploaded to: SVG Repo, www.svgrepo.com, Transformed by: SVG Repo Mixer Tools -->
<svg fill="#8a470c" height="800px" width="800px" version="1.1" id="Layer_1" xmlns="http://www.w3.org/2000/svg" xmlns:xlink="http://www.w3.org/1999/xlink" viewBox="0 0 511.999 511.999" xml:space="preserve" transform="matrix(-1, 0, 0, 1, 0, 0)">

<g id="SVGRepo_bgCarrier" stroke-width="0"/>

<g id="SVGRepo_tracerCarrier" stroke-linecap="round" stroke-linejoin="round"/>

<g id="SVGRepo_iconCarrier"> <g> <g> <path d="M255.999,0c-68.267,0-123.805,55.539-123.805,123.805v358.077c0,16.607,13.509,30.116,30.116,30.116h187.379 c16.607,0,30.116-13.509,30.116-30.116V123.805C379.805,55.539,324.267,0,255.999,0z M147.507,138.323l70.161,70.332 c1.451,1.455,3.408,2.249,5.421,2.249c0.516,0,1.036-0.052,1.553-0.159c2.528-0.523,4.622-2.285,5.569-4.686l30.999-78.523h78.361 c4.23,0,7.657-3.428,7.657-7.657c0-50.302-40.924-91.226-91.226-91.226c-47.723,0-86.999,36.837-90.902,83.569h-16.971 c5.799-54.396,51.961-96.909,107.871-96.909c59.823,0,108.492,48.67,108.492,108.492v92.83H147.507V138.323z M244.745,127.537 l-24.488,62.031l-61.879-62.031h14.053H244.745z M180.469,112.223c3.85-38.278,36.255-68.256,75.53-68.256 c39.275,0,71.68,29.978,75.53,68.256h-75.53H180.469z M364.492,481.884c0,8.162-6.641,14.803-14.803,14.803H162.31 c-8.162,0-14.803-6.641-14.803-14.803v-36.255h216.985V481.884z M364.492,430.317H147.507V392.21h216.985V430.317z M364.492,376.895H147.507v-38.107h216.985V376.895z M364.492,323.476H147.507v-0.001V285.37h216.985V323.476z M364.492,270.056 H147.507v-38.107h216.985V270.056z"/> </g> </g> </g>

</svg>